<?xml version="1.0" encoding="utf-8"?>
<!-- Generator: Adobe Illustrator 25.3.0, SVG Export Plug-In . SVG Version: 6.00 Build 0)  -->
<svg version="1.0" id="Capa_1" xmlns="http://www.w3.org/2000/svg" xmlns:xlink="http://www.w3.org/1999/xlink" x="0px" y="0px"
	 viewBox="0 0 150 150" style="enable-background:new 0 0 150 150;" xml:space="preserve">
<style type="text/css">
	.st0{fill:#FFFFFF;}
	.st1{fill:url(#SVGID_1_);}
	.st2{fill:url(#SVGID_2_);}
	.st3{fill:url(#SVGID_3_);}
</style>
<g>
	<path class="st0" d="M72,83.2c0.4,0.4,0.8,0.7,1,1.3c0.2,0.4,0.7,1.4,1,2.4c-0.4-1-0.9-2-1-2.4C72.8,84,72.4,83.6,72,83.2z"/>
	
		<linearGradient id="SVGID_1_" gradientUnits="userSpaceOnUse" x1="23.8388" y1="-1372.1904" x2="25.4191" y2="-1372.1904" gradientTransform="matrix(0.315 0.9491 -0.9491 0.315 -1234.684 486.9539)">
		<stop  offset="5.193929e-02" style="stop-color:#00E4E3"/>
		<stop  offset="0.2033" style="stop-color:#6A4FEB"/>
		<stop  offset="0.2198" style="stop-color:#5943C6"/>
		<stop  offset="0.2413" style="stop-color:#47359D"/>
		<stop  offset="0.2654" style="stop-color:#362877"/>
		<stop  offset="0.2917" style="stop-color:#271D57"/>
		<stop  offset="0.3208" style="stop-color:#1B143B"/>
		<stop  offset="0.3536" style="stop-color:#110D25"/>
		<stop  offset="0.3919" style="stop-color:#090714"/>
		<stop  offset="0.4393" style="stop-color:#040309"/>
		<stop  offset="0.5057" style="stop-color:#010102"/>
		<stop  offset="0.6901" style="stop-color:#000000"/>
	</linearGradient>
	<path class="st1" d="M77.2,78.3L77.2,78.3c-1.3,0.2-2.4,0-3.6-0.4l0,0C74.9,78.3,75.9,78.5,77.2,78.3z"/>
	<path class="st0" d="M74.5,88c-0.1-0.2-0.1-0.3-0.2-0.5C74.4,87.6,74.5,87.8,74.5,88z"/>
	<path class="st0" d="M70.1,82.1c0.2,0,0.3,0.1,0.5,0.1c-0.4,1.4-1,2.6-1.4,3.9l0,0c0.4-1.2,0.9-2.5,1.4-3.9
		C70.5,82.2,70.3,82.1,70.1,82.1z"/>
	<path class="st0" d="M75.2,89.8c-0.1-0.4-0.4-0.8-0.5-1.3C75,89.1,75.1,89.4,75.2,89.8z"/>
	<path class="st0" d="M68.1,80.8c0.4-0.6,0.9-1.2,1.4-1.8c-0.5-0.3-1.1-0.7-1.6-1.1c-0.4-0.4-1-0.7-1.6-1c0-0.1,0.1-0.1,0.1-0.2l0,0
		c-0.1,0.1-0.2,0.2-0.1,0.2c0.5,0.3,1,0.7,1.6,1c0.5,0.3,1.1,0.8,1.6,1.1C69,79.6,68.5,80.3,68.1,80.8c-0.2,0.3-0.5,0.5-0.7,0.6
		c0.1,0,0.1,0.1,0.2,0c-0.1,0-0.1-0.1-0.2,0C67.6,81.3,67.8,81.1,68.1,80.8z"/>
	<path class="st0" d="M70.1,75c-0.2-1-1-4.3-1.2-5.2l0,0C69,70.7,69.9,73.9,70.1,75c0.3,0.9,0.5,2-0.1,3.1c-0.5-0.2-0.9-0.3-1.3-0.6
		c0.5,0.2,0.8,0.4,1.3,0.6C70.5,77,70.4,75.9,70.1,75z"/>
	<path class="st0" d="M69.1,70.5L69.1,70.5L69.1,70.5z"/>
	<path class="st0" d="M69.4,71.1c0.1,0.4,0.2,0.7,0.5,1.1C69.7,71.9,69.5,71.4,69.4,71.1z"/>
	<path class="st0" d="M76,91.5L76,91.5c-0.1-0.2-0.1-0.4-0.3-0.5C75.9,91.1,75.9,91.3,76,91.5z"/>
	
		<linearGradient id="SVGID_2_" gradientUnits="userSpaceOnUse" x1="29.9512" y1="-1372.97" x2="30.4879" y2="-1372.97" gradientTransform="matrix(0.315 0.9491 -0.9491 0.315 -1234.684 486.9539)">
		<stop  offset="5.193929e-02" style="stop-color:#00E4E3"/>
		<stop  offset="0.2033" style="stop-color:#6A4FEB"/>
		<stop  offset="0.2198" style="stop-color:#5943C6"/>
		<stop  offset="0.2413" style="stop-color:#47359D"/>
		<stop  offset="0.2654" style="stop-color:#362877"/>
		<stop  offset="0.2917" style="stop-color:#271D57"/>
		<stop  offset="0.3208" style="stop-color:#1B143B"/>
		<stop  offset="0.3536" style="stop-color:#110D25"/>
		<stop  offset="0.3919" style="stop-color:#090714"/>
		<stop  offset="0.4393" style="stop-color:#040309"/>
		<stop  offset="0.5057" style="stop-color:#010102"/>
		<stop  offset="0.6901" style="stop-color:#000000"/>
	</linearGradient>
	<path class="st2" d="M78.2,83.3c-0.2-0.2-0.4-0.3-0.5-0.4C77.8,83.1,77.9,83.2,78.2,83.3L78.2,83.3z"/>
	<path class="st0" d="M75.6,90.5c0-0.1-0.1-0.3-0.1-0.4C75.5,90.2,75.5,90.3,75.6,90.5z"/>
	
		<linearGradient id="SVGID_3_" gradientUnits="userSpaceOnUse" x1="20.3206" y1="-1371.4745" x2="23.0313" y2="-1371.4745" gradientTransform="matrix(0.315 0.9491 -0.9491 0.315 -1234.684 486.9539)">
		<stop  offset="5.193929e-02" style="stop-color:#00E4E3"/>
		<stop  offset="0.2033" style="stop-color:#6A4FEB"/>
		<stop  offset="0.2198" style="stop-color:#5943C6"/>
		<stop  offset="0.2413" style="stop-color:#47359D"/>
		<stop  offset="0.2654" style="stop-color:#362877"/>
		<stop  offset="0.2917" style="stop-color:#271D57"/>
		<stop  offset="0.3208" style="stop-color:#1B143B"/>
		<stop  offset="0.3536" style="stop-color:#110D25"/>
		<stop  offset="0.3919" style="stop-color:#090714"/>
		<stop  offset="0.4393" style="stop-color:#040309"/>
		<stop  offset="0.5057" style="stop-color:#010102"/>
		<stop  offset="0.6901" style="stop-color:#000000"/>
	</linearGradient>
	<path class="st3" d="M74.9,73.7L74.9,73.7c-0.7,1.2-1.4,2.4-2.2,3.6l0,0C73.4,76.1,74.1,74.9,74.9,73.7z"/>
	<path class="st0" d="M37.7,53c-0.2,0.8,3.3,61,3.6,61.9c4-19.5,7.9-38.8,11.9-58.3c19.4,4,38.7,8,57.9,12c0,0,0.1,0,0.1-0.1
		l0.1-0.1c-2.7-1.6-71.7-36.3-72.7-36.5c0.2,0.5,0.3,0.8,0.4,1.1c3.1,9.3,6.2,18.7,9.3,27.9c0.2,0.6,0.2,1.2,0.1,1.8
		c-0.9,4.2-1.7,8.2-2.5,12.5c0,0.3-0.1,0.5-0.2,0.8c-0.1,0-0.1-0.1-0.2,0C42.8,68.3,40.3,60.7,37.7,53z"/>
	<path class="st0" d="M44.8,135.6c22.5-14.9,45.1-29.8,67.6-44.6c0-0.1-0.1-0.2-0.1-0.3c-18.7,6.2-37.3,12.4-56,18.6
		c-0.5-1.5-1.1-2.9-1.4-4.3c-0.2-0.5-0.2-0.8,0-1.3c0.8-4.3,1.8-8.5,2.6-12.8c0-0.2,0.2-0.4,0.2-0.6c0.1,0,0.1,0.1,0.2,0
		c0.5,1.1,0.8,2.1,1.2,3.2c0.4,1.1,0.7,2.1,1.1,3.2c0.4,1.1,0.6,2.1,1.2,3.2c21-7,42-13.9,62.9-20.9c0-0.1,0.1-0.1,0-0.2
		c-21.7-4.5-43.3-9-65.1-13.5C54.3,88.8,49.6,112.2,44.8,135.6C44.7,135.6,44.8,135.6,44.8,135.6z"/>
</g>
</svg>
