<?xml version="1.0" encoding="utf-8"?>
<!-- Generator: Adobe Illustrator 25.3.0, SVG Export Plug-In . SVG Version: 6.00 Build 0)  -->
<svg version="1.1" id="Capa_1" xmlns="http://www.w3.org/2000/svg" xmlns:xlink="http://www.w3.org/1999/xlink" x="0px" y="0px"
	 viewBox="0 0 689 216" style="enable-background:new 0 0 689 216;" xml:space="preserve">
<style type="text/css">
	.st0{enable-background:new    ;}
	.st1{fill:#FFFFFF;}
	.st2{fill:none;}
	.st3{fill:url(#SVGID_1_);}
</style>
<g>
	<g class="st0">
		<path class="st1" d="M297.8,83.4c13,0,23.5,10.5,23.5,23.5c0,5.8-2.1,11.1-5.6,15.2c-0.4,0.5-0.9,0.9-1.3,1.4
			c-4.2,4.3-10.1,6.9-16.5,6.9h-23.5V83.3L297.8,83.4z M282.7,122.1h15.1c8.3,0,15.1-6.8,15.1-15.1c0-8.3-6.8-15.1-15.1-15.1h-15.1
			V122.1z"/>
		<path class="st1" d="M366.1,122.1l4.3,8.4H361l-4.3-8.4l-4.5-8.8l-0.2-0.4c-1.5-2.4-4.1-4-7.1-4h-8.4v21.7h-8.4V83.4h29.7
			c3.5,0,6.7,1.4,8.9,3.7c2.3,2.4,3.7,5.5,3.7,9c0,5.1-3,9.6-7.4,11.6c-1.1,0.5-2.4,0.9-3.6,1L366.1,122.1z M357.8,100.4
			c0.6,0,1.2-0.1,1.7-0.4c1.5-0.7,2.6-2.2,2.6-3.9c0-1.5-0.8-2.6-1.3-3.1c-0.5-0.5-1.5-1.2-3-1.2h-21.3v8.7L357.8,100.4z"/>
		<path class="st1" d="M385.6,96.1v4.4h30.3v8.4h-30.3v8.9c0,2.4,1.9,4.3,4.3,4.3h34.4v8.4h-34.4c-7,0-12.6-5.7-12.6-12.7V96.1
			c0-7,5.7-12.7,12.6-12.7h34.4v8.4h-34.4C387.6,91.8,385.6,93.7,385.6,96.1z"/>
		<path class="st1" d="M476.4,130.4H467l-4.3-8.4l-10.3-20.2L442.1,122l-4.3,8.4h-9.4l4.3-8.4l19.7-38.7l19.7,38.7L476.4,130.4z"/>
		<path class="st1" d="M527.6,83.3v47.1h-8.4v-30l-8.3,6.3l-6.9,5.3l-6.9-5.3l-8.3-6.3v30h-8.4V83.3l8.4,6.5l15.1,11.6l15.1-11.6
			L527.6,83.3z"/>
		<path class="st1" d="M581.4,83.3v47.1H573v-21.6h-30.3v21.6h-8.4V83.3h8.4v17.1H573V83.3H581.4z"/>
		<path class="st1" d="M635.2,83.3v23.5c0,13-10.6,23.5-23.5,23.5s-23.5-10.6-23.5-23.5V83.3h8.4v23.5c0,8.3,6.8,15.1,15.1,15.1
			c8.3,0,15.1-6.8,15.1-15.1V83.3H635.2z"/>
		<path class="st1" d="M689,115.4c0,8.3-6.7,15-15,15h-32.1V83.3h29.7c7,0,12.7,5.7,12.7,12.7c0,2.6-0.7,4.9-2,6.9
			C686.3,105.6,689,110.2,689,115.4z M650.3,100.4h21.3c2.4,0,4.3-2,4.3-4.3c0-2.4-1.9-4.3-4.3-4.3h-21.3V100.4z M674,122
			c3.6,0,6.6-3,6.6-6.6s-3-6.6-6.6-6.6h-23.7V122L674,122L674,122z"/>
	</g>
	<path class="st1" d="M230,50.9L230,50.9L230,50.9l-3.4,55.2c-0.1,1.1-0.1,2.2,0,3.3l3.4,55.7l0,0l0,0l3.4-55.7
		c0.1-1.1,0.1-2.2,0-3.3L230,50.9z"/>
	<g>
		<path class="st2" d="M104.2,133.2c0.4-0.2,0.8-0.5,1.3-0.5c0.4-0.1,1.3-0.2,2.2-0.2c-0.9,0.1-1.8,0.2-2.2,0.2
			C105.2,132.8,104.7,133,104.2,133.2z"/>
		<path class="st2" d="M101.7,127.7L101.7,127.7c-0.2,1.1-0.7,1.9-1.3,2.8l0,0C101,129.7,101.5,128.8,101.7,127.7z"/>
		<path class="st2" d="M108.9,132.5c-0.2,0-0.2,0-0.4,0C108.6,132.5,108.7,132.5,108.9,132.5z"/>
		<path class="st2" d="M102.8,134.5c0.1-0.2,0.2-0.2,0.2-0.4c1,0.7,1.8,1.5,2.8,2.2l0,0c-0.9-0.7-1.8-1.4-2.8-2.2
			C103,134.2,102.9,134.4,102.8,134.5z"/>
		<path class="st2" d="M110.6,132.4c-0.3,0-0.7,0.1-1.2,0.1C109.8,132.5,110.2,132.4,110.6,132.4z"/>
		<path class="st2" d="M101.3,135.8c-0.4-0.5-0.7-1.1-1.1-1.7c-0.4,0.3-0.9,0.7-1.3,1c-0.4,0.3-0.8,0.7-1.2,1
			c-0.1,0-0.1-0.1-0.2-0.2l0,0c0.1,0.1,0.1,0.2,0.2,0.2c0.4-0.3,0.8-0.7,1.2-1c0.4-0.3,0.9-0.7,1.3-1
			C100.6,134.8,100.9,135.3,101.3,135.8c0.2,0.2,0.2,0.5,0.3,0.7c0-0.1,0.1-0.1,0.1-0.2c0,0.1-0.1,0.1-0.1,0.2
			C101.5,136.4,101.4,136.1,101.3,135.8z"/>
		<path class="st2" d="M97,132.7c-0.9-0.1-3.7-0.3-4.6-0.4l0,0C93.3,132.3,96.1,132.5,97,132.7c0.8,0,1.7,0.2,2.5,0.9
			c-0.2,0.3-0.5,0.7-0.8,0.9c0.2-0.3,0.6-0.6,0.8-0.9C98.7,132.7,97.8,132.7,97,132.7z"/>
		<path class="st2" d="M93.1,132.2L93.1,132.2L93.1,132.2z"/>
		<path class="st2" d="M93.7,132.2c0.3,0,0.7,0,1-0.1C94.3,132.1,94,132.1,93.7,132.2z"/>
		<path class="st2" d="M112.1,132.2L112.1,132.2c-0.2,0-0.3,0-0.5,0.1C111.7,132.3,111.9,132.3,112.1,132.2z"/>
		<path class="st2" d="M106,128.3c-0.2,0.1-0.3,0.2-0.5,0.3C105.7,128.5,105.8,128.4,106,128.3L106,128.3z"/>
		<path class="st2" d="M111.2,132.3c-0.1,0-0.2,0-0.3,0C110.9,132.4,111.1,132.3,111.2,132.3z"/>
		<path class="st2" d="M97.2,128.3L97.2,128.3c0.8,0.9,1.6,1.8,2.3,2.7l0,0C98.8,130.2,98.1,129.2,97.2,128.3z"/>
		
			<linearGradient id="SVGID_1_" gradientUnits="userSpaceOnUse" x1="34.9592" y1="-728.814" x2="82.5957" y2="-645.5308" gradientTransform="matrix(1 0 0 1 0 784)">
			<stop  offset="5.193929e-02" style="stop-color:#00E4E3"/>
			<stop  offset="0.2033" style="stop-color:#6A4FEB"/>
			<stop  offset="0.5057" style="stop-color:#FFFFFF"/>
		</linearGradient>
		<path class="st3" d="M18.7,171.7c0.1,0.1,0.1,0.1,0.2,0.1c0.2-0.2,0.4-0.3,0.6-0.5c3.3-3.3,6.7-6.7,10.2-10.1
			c6.1-6.1,12.2-12.2,18.2-18.2c8.2-8.2,16.4-16.3,24.7-24.6c5.8-5.8,11.7-11.6,17.4-17.3c2.2-2.2,4.4-4.3,6.6-6.5
			c6-5.9,11.9-11.8,17.8-17.7c0.3-0.3,0.4-0.7,0.2-1.1c-0.1-0.2-0.1-0.2-0.1-0.4l-11.3-41.6c-0.5-4.9-2.6-10.4-7.8-15.8
			c3.2,7.7,3.2,12.9,2.4,17.2C71.3,80.8,45,126.3,18.7,171.7z"/>
		<path class="st1" d="M70.2,153.1c0.6,0.4,50.7,13.8,51.6,13.8c-14.8-8.6-29.6-17-44.4-25.5c8.6-14.7,17-29.4,25.5-44
			c0,0,0-0.1-0.1-0.1l-0.1-0.1c-2,1.7-49.1,48.7-49.5,49.5c0.4,0,0.7,0,1,0c8.4,0,16.9,0,25.3,0c0.6,0,1,0.2,1.5,0.4
			c3.2,1.8,6.2,3.6,9.5,5.4c0.2,0.1,0.4,0.2,0.6,0.4c0,0.1-0.1,0.1-0.1,0.2C84.2,153.1,77.3,153.1,70.2,153.1z"/>
		<path class="st1" d="M177.3,188.6L177.3,188.6c-0.2-0.2-0.3-0.2-0.6-0.2c-2.7-0.7-5.4-1.5-8.2-2.2c-19.2-5.2-38.3-10.2-57.4-15.3
			c-21.3-5.7-42.7-11.4-64.1-17.1c-0.6-0.2-1-0.1-1.5,0.4c-3.6,3.6-7.2,7.2-10.9,10.9c-2.2,2.2-4.5,4.5-6.8,6.7
			c-2.4,2.4-4.9,4.9-7.3,7.3c-4.9,4.2-6.9,9.7-20.5,11.5c12.3,0.7,19.7-0.2,24.2-1.9C75.5,188.6,126.4,188.6,177.3,188.6z"/>
		<path class="st1" d="M117.7,63.1c5.7,21.3,11.5,42.7,17.2,64c4.1,15.3,8.2,30.7,12.3,46c0.2,0.6,0.4,0.8,1,1
			c12.6,3.3,25.2,6.7,37.7,10.1c4.2,2.2,8.7,5.5,13,13.8c-0.4-4.6-1.7-8.2-3.3-11.2l0,0l0,0c-0.2-0.2-0.2-0.4-0.3-0.6L112.6,43.3
			c-0.1,0.3-0.1,0.6,0.1,0.8C114.3,50.4,116,56.8,117.7,63.1z"/>
		<path class="st1" d="M139.7,169.7c-6.1-22.4-12.1-44.9-18.1-67.3c-0.1,0-0.2,0-0.2,0c0,16.9,0,33.8,0,50.8c-1.3,0-2.7,0.1-3.9,0
			c-0.4,0-0.7-0.1-1.1-0.3c-3.2-1.8-6.5-3.7-9.7-5.6c-0.2-0.1-0.2-0.2-0.4-0.3c0-0.1,0.1-0.1,0.1-0.2c1-0.1,1.9-0.1,2.9-0.1
			c1,0,1.9,0,2.9,0c1,0,1.9,0.1,2.9-0.1c0-19.1,0-38.1,0-57.1c-0.1,0-0.1-0.1-0.2-0.1c-9.6,16.5-19.1,32.9-28.7,49.5
			C104.1,149.2,121.9,159.4,139.7,169.7C139.7,169.7,139.7,169.7,139.7,169.7z M105.9,136.2L105.9,136.2L105.9,136.2
			c-0.9-0.7-1.8-1.4-2.8-2.2c-0.1,0.2-0.2,0.2-0.2,0.4c-0.4,0.7-0.8,1.2-1.2,1.9c0,0.1-0.1,0.1-0.1,0.2c-0.1-0.2-0.2-0.5-0.3-0.7
			c-0.4-0.5-0.7-1.1-1.1-1.7c-0.4,0.3-0.9,0.7-1.3,1c-0.4,0.2-0.8,0.7-1.2,1c-0.1,0-0.1-0.1-0.2-0.2l0,0l0,0c0.4-0.5,0.8-1,1.3-1.5
			c0.2-0.3,0.6-0.6,0.8-0.9c-0.7-0.8-1.7-0.9-2.5-0.9c-0.9-0.1-3.7-0.3-4.6-0.4l0,0l0,0c0.2,0,0.4,0,0.7,0l0,0c0.2,0,0.3,0,0.5,0
			c0.3,0,0.7,0,1-0.1c0.9-0.1,1.7-0.1,2.2-0.1c0.2,0,0.5-0.1,0.8-0.1c0.8,0,1.3-0.3,1.9-0.8c-0.7-0.9-1.5-1.8-2.3-2.7l0,0l0.1-0.1
			l0,0c1,0.7,1.9,1.5,2.9,2.2c0.7-0.8,1.2-1.7,1.3-2.8l0,0l0,0c0.2,1.1,0.7,1.9,1.5,2.8c0.8-0.6,1.7-1.2,2.4-1.8
			c0.2-0.2,0.3-0.2,0.5-0.3l0,0l0,0l0.1,0.1c-0.7,0.8-1.5,1.7-2.3,2.7c0.5,0.3,0.9,0.8,1.6,0.8c0.9,0.1,1.8,0.2,2.8,0.2
			c0.3,0,2.7,0.1,3.9,0.2l0,0l0,0c-0.2,0-0.3,0-0.5,0.1c-0.2,0-0.2,0-0.4,0c-0.1,0-0.2,0-0.3,0s-0.2,0-0.2,0c-0.3,0-0.7,0.1-1.2,0.1
			c-0.2,0-0.3,0-0.6,0c-0.2,0-0.2,0-0.4,0c-0.2,0-0.3,0-0.5,0c-0.9,0.1-1.8,0.2-2.2,0.2c-0.5,0-0.9,0.2-1.3,0.5
			c-0.2,0.1-0.3,0.2-0.5,0.3C104.5,134.5,105.2,135.4,105.9,136.2L105.9,136.2z"/>
	</g>
</g>
</svg>
