<?xml version="1.0" encoding="utf-8"?>
<!-- Generator: Adobe Illustrator 25.3.0, SVG Export Plug-In . SVG Version: 6.00 Build 0)  -->
<svg version="1.1" id="Capa_1" xmlns="http://www.w3.org/2000/svg" xmlns:xlink="http://www.w3.org/1999/xlink" x="0px" y="0px"
	 viewBox="0 0 1000 1000" style="enable-background:new 0 0 1000 1000;" xml:space="preserve">
<style type="text/css">
	.st0{display:none;fill:#1C1C1C;}
	.st1{fill:none;}
	.st2{fill:url(#SVGID_1_);}
	.st3{display:none;}
	.st4{display:inline;}
</style>
<rect x="0.2" y="-0.8" class="st0" width="1000" height="1000"/>
<g>
	<path class="st1" d="M507.7,531.3c1.7-1.1,3.3-1.9,5.3-2c1.7-0.3,5.1-0.5,8.8-0.8c-3.7,0.2-7.1,0.5-8.8,0.8
		C511.1,529.4,509.4,530.2,507.7,531.3z"/>
	<path class="st1" d="M497.6,509.5C497.6,509.5,497.6,509.5,497.6,509.5c-0.5,4.3-2.6,7.6-5.3,10.9l0,0
		C495,517.1,497.1,513.8,497.6,509.5z"/>
	<path class="st1" d="M525.7,528.3c-0.6,0-1.1,0.1-1.7,0.1C524.5,528.4,525.1,528.3,525.7,528.3z"/>
	<path class="st1" d="M502.3,536.1c0.3-0.5,0.6-1,1-1.5c3.8,2.8,7.2,5.7,10.9,8.3c0,0,0,0,0,0c-3.6-2.6-7.1-5.5-10.9-8.3
		C502.9,535.1,502.6,535.6,502.3,536.1z"/>
	<path class="st1" d="M532.2,527.9c-1.4,0.1-2.8,0.2-4.4,0.3C529.4,528.1,530.8,528,532.2,527.9z"/>
	<path class="st1" d="M496.2,541.3c-1.6-2.1-2.9-4.1-4.3-6.5c-1.7,1.4-3.6,2.8-5.3,4s-3.3,2.6-5,3.8c-0.3,0-0.3-0.3-0.5-0.5
		c0,0,0,0,0,0c0.2,0.2,0.2,0.5,0.5,0.5c1.7-1.2,3.3-2.6,5-3.8s3.6-2.6,5.3-4C493.3,537.2,494.7,539.3,496.2,541.3
		c0.5,0.9,0.9,2.1,1.2,2.8c0.1-0.2,0.2-0.3,0.3-0.5c-0.1,0.2-0.2,0.3-0.3,0.5C497.1,543.4,496.7,542.2,496.2,541.3z"/>
	<path class="st1" d="M479.5,528.8c-3.6-0.3-14.5-1.2-17.7-1.7c0,0,0,0,0,0C465,527.6,475.9,528.4,479.5,528.8
		c3.3,0,6.9,0.5,9.8,3.6c-1.1,1.3-2.1,2.5-3.2,3.7c1.1-1.2,2.2-2.4,3.2-3.7C486.4,529.3,482.8,528.8,479.5,528.8z"/>
	<path class="st1" d="M464.2,526.9c0,0,0.1,0,0.1,0C464.3,526.9,464.3,526.9,464.2,526.9z"/>
	<path class="st1" d="M466.5,526.8c1.2-0.1,2.6-0.1,4-0.2C469.1,526.7,467.7,526.7,466.5,526.8z"/>
	<path class="st1" d="M538.2,527.4C538.2,527.4,538.2,527.4,538.2,527.4c-0.5,0.1-1.2,0.1-2,0.2C537,527.5,537.7,527.5,538.2,527.4z
		"/>
	<path class="st1" d="M514.6,511.9c-0.6,0.4-1.2,0.9-1.8,1.3C513.4,512.8,514,512.3,514.6,511.9L514.6,511.9z"/>
	<path class="st1" d="M534.7,527.7c-0.4,0-0.9,0.1-1.4,0.1C533.8,527.8,534.2,527.7,534.7,527.7z"/>
	<path class="st1" d="M480.5,512.1L480.5,512.1c3.1,3.6,6.2,7.1,9.1,10.7l0,0C486.7,519.1,483.6,515.7,480.5,512.1z"/>
	<linearGradient id="SVGID_1_" gradientUnits="userSpaceOnUse" x1="237.6613" y1="227.0211" x2="423.2814" y2="551.5421">
		<stop  offset="5.193929e-02" style="stop-color:#00E4E3"/>
		<stop  offset="0.2033" style="stop-color:#6A4FEB"/>
		<stop  offset="0.2198" style="stop-color:#5943C6"/>
		<stop  offset="0.2413" style="stop-color:#47359D"/>
		<stop  offset="0.2654" style="stop-color:#362877"/>
		<stop  offset="0.2917" style="stop-color:#271D57"/>
		<stop  offset="0.3208" style="stop-color:#1B143B"/>
		<stop  offset="0.3536" style="stop-color:#110D25"/>
		<stop  offset="0.3919" style="stop-color:#090714"/>
		<stop  offset="0.4393" style="stop-color:#040309"/>
		<stop  offset="0.5057" style="stop-color:#010102"/>
		<stop  offset="0.6901" style="stop-color:#000000"/>
	</linearGradient>
	<path class="st2" d="M174.4,681.2c0.2,0.2,0.3,0.3,0.5,0.3c0.7-0.7,1.6-1.4,2.2-2.1c13.1-13.1,26.4-26.2,39.5-39.3
		c23.8-23.6,47.4-47.4,71.2-70.8c32-31.9,64.1-63.7,96.1-95.8c22.6-22.6,45.3-45.1,67.9-67.5c8.4-8.4,17.1-16.9,25.5-25.3
		c23.3-23.1,46.3-46.2,69.6-69.3c1.4-1.4,1.7-2.6,1-4.3c-0.3-0.5-0.3-1-0.3-1.6l-43.7-161.8c-2.1-19-10-40.5-30.6-61.8
		c12.3,29.8,12.3,50.3,9.4,67C379.5,327,276.9,504.1,174.4,681.2z"/>
	<path d="M375.3,608.5c2.4,1.6,197.6,53.8,200.9,53.8C518.3,629,460.9,596,403.3,562.9c33.3-57.4,66.3-114.6,99.2-171.4
		c0,0,0-0.2-0.2-0.3c0,0-0.2-0.2-0.3-0.2c-7.9,6.9-191.2,190-193,193c1.6,0,2.8,0,4,0c32.9,0,65.8,0,98.7,0c2.2,0,4,0.5,5.9,1.6
		c12.2,7.1,24.5,14.1,36.9,21.2c0.9,0.3,1.6,1,2.2,1.6c0,0.2-0.2,0.3-0.2,0.5C429.7,608.5,402.7,608.5,375.3,608.5z"/>
	<path d="M792.5,746.9c0-0.2,0-0.3,0-0.3c-0.7-0.3-1.4-0.5-2.2-0.7c-10.5-2.9-21-5.7-31.7-8.4c-74.6-20-149.2-39.8-223.8-59.8
		c-83.2-22.2-166.4-44.4-249.6-66.7c-2.4-0.7-4-0.2-5.7,1.6c-14.1,14.1-28.4,28.4-42.6,42.6c-8.8,8.8-17.6,17.6-26.5,26.4
		c-9.5,9.5-19,19-28.6,28.5c-19.3,16.5-27,38-79.8,44.7c48,2.7,76.8-1,94.6-7.6C395.6,746.9,594,746.9,792.5,746.9z"/>
	<path d="M560.1,257.9c22.4,83,44.8,166.1,67,249.3c16,59.8,32.2,119.4,48.1,179.2c0.5,2.2,1.6,3.4,3.8,4
		c49.1,13.1,98,26.2,147.1,39.2c16.2,8.6,34,21.3,50.7,53.8c-1.7-17.9-6.6-32.3-13.1-43.9c0,0,0,0,0,0l-0.1-0.1
		c-0.5-0.8-0.9-1.6-1.4-2.4L540,180.6c-0.3,1.2-0.2,2.2,0.2,3.3C546.9,208.5,553.4,233.1,560.1,257.9z"/>
	<g class="st3">
		<path class="st4" d="M174.7,876.8l-36.4-0.2v72.7h36.4c10,0,19-4.1,25.5-10.7c0.7-0.7,1.4-1.4,2.1-2.2c5.3-6.4,8.6-14.5,8.6-23.4
			C211.3,893,194.9,876.8,174.7,876.8z M174.7,936.6h-23.4v-46.7h23.4c12.9,0,23.4,10.5,23.4,23.4S187.6,936.6,174.7,936.6z"/>
		<path class="st4" d="M287.1,896.4c0-5.3-2.2-10.3-5.7-14c-3.6-3.6-8.4-5.7-13.8-5.7h-46v72.7h12.9v-33.4h12.9
			c4.7,0,8.8,2.4,11,6.2l0.3,0.7l6.9,13.6l6.7,12.9h14.5l-6.7-12.9l-10.3-20.7c1.9-0.2,3.8-0.7,5.7-1.6
			C282.4,911.2,287.1,904.4,287.1,896.4z M264.3,897.1c-2.1,0.2-3.6,1.2-5.3,2.4c2.1,2.4,4.1,5,6.2,7.4l-0.2,0.2
			c-2.6-1.9-5.2-4-7.9-6c-1.6,2.4-2.9,4.7-4.3,6.9c-0.2-0.5-0.5-1.4-0.9-2.1c-1-1.6-2.1-3.1-3.1-4.8c-1.4,1-2.8,2.1-4,2.9
			c-1.2,0.9-2.4,1.9-3.6,2.8c-0.2,0-0.2-0.2-0.3-0.3c1.9-2.4,4-4.7,6-7.1c-2.2-2.2-4.8-2.6-7.2-2.6c-2.6-0.2-12.2-0.9-14.8-1.2
			c2.4-0.2,12.1-0.3,14.5-0.7c0.7,0,1.4-0.2,2.2-0.2c2.2,0,3.8-1,5.5-2.4c-2.2-2.6-4.5-5.2-6.7-7.8l0.2-0.2c2.8,2.1,5.5,4.1,8.4,6.2
			c2.1-2.4,3.6-4.8,4-7.9c0.5,3.1,1.9,5.5,4.1,7.9c2.8-2.1,5.5-4.1,8.3-6.2l0.2,0.2c-2.1,2.4-4.3,5-6.5,7.6c1.4,1,2.6,2.2,4.5,2.4
			c2.6,0.2,5.3,0.5,7.9,0.7c0.9,0,7.6,0.2,11,0.7C279.1,896.3,267.6,896.8,264.3,897.1z"/>
		<path class="st4" d="M297.7,896.3v33.4c0,10.9,8.8,19.6,19.5,19.6h53.1v-12.9h-53.1c-3.6,0-6.7-2.9-6.7-6.7v-13.8h46.7V903h-46.7
			v-6.7c0-3.6,2.9-6.7,6.7-6.7h53.1v-12.9h-53.1C306.4,876.6,297.7,885.6,297.7,896.3z"/>
		<polygon class="st4" points="413.9,876.6 383.4,936.4 376.6,949.5 391.3,949.5 397.8,936.4 413.9,905.2 429.7,936.4 436.3,949.5 
			450.9,949.5 444.2,936.4 		"/>
		<polygon class="st4" points="493.5,904.7 470.2,886.6 457.1,876.6 457.1,949.5 477.1,949.5 470.2,944.3 470.2,903.1 482.9,912.8 
			493.5,921.1 504.1,912.8 516.9,903.1 516.9,944.5 508.4,949.5 529.8,949.5 529.8,876.6 516.9,886.6 		"/>
		<polygon class="st4" points="600.1,890.1 553.2,890.1 553.2,876.6 540.3,876.6 540.3,949.5 553.2,949.5 553.2,903 600.1,903 
			600.1,949.5 613,949.5 613,876.6 600.1,876.6 		"/>
		<path class="st4" d="M683.1,913.1c0,12.9-10.5,23.4-23.4,23.4s-23.4-10.5-23.4-23.4v-36.5h-12.9V913c0,20,16.4,36.4,36.4,36.4
			s36.4-16.4,36.4-36.4v-36.4h-12.9V913.1z"/>
		<path class="st4" d="M772,909.5c-1-0.9-2.1-1.9-3.1-2.6c1.9-2.9,3.1-6.7,3.1-10.7c0-10.9-8.8-19.6-19.6-19.6h-45.8v72.7h49.6
			c6,0,11.5-2.4,15.7-6.2l0.9-0.7c4.1-4.1,6.7-10,6.7-16.4c-0.2-6.2-2.8-11.7-6.7-15.9C772.6,910,772.4,909.9,772,909.5z
			 M719.5,889.7h32.9c3.6,0,6.7,2.9,6.7,6.7c0,3.6-2.9,6.7-6.7,6.7h-32.9V889.7z M752.7,928c-2.1,0.2-3.6,1.2-5.3,2.4
			c2.1,2.4,4.1,5,6.2,7.4l-0.2,0.2c-2.6-1.9-5.2-4-7.9-6c-1.6,2.4-2.9,4.7-4.3,6.9c-0.2-0.5-0.5-1.4-0.9-2.1c-1-1.6-2.1-3.1-3.1-4.8
			c-1.4,1-2.8,2.1-4,2.9c-1.2,0.9-2.4,1.9-3.6,2.8c-0.2,0-0.2-0.2-0.3-0.3c1.9-2.4,4-4.7,6-7.1c-2.2-2.2-4.8-2.6-7.2-2.6
			c-2.6-0.2-10.5-0.9-12.9-1.2c2.4-0.2,10.2-0.5,12.6-0.7c0.7,0,1.4-0.2,2.2-0.2c2.2,0,3.8-1,5.5-2.4c-2.2-2.6-4.5-5.2-6.7-7.8
			l0.2-0.2c2.8,2.1,5.5,4.1,8.4,6.2c2.1-2.4,3.6-4.8,4-7.9c0.5,3.1,1.9,5.5,4.1,7.9c2.8-2.1,5.5-4.1,8.3-6.2l0.2,0.2
			c-2.1,2.4-4.3,5-6.5,7.6c1.4,1,2.6,2.2,4.5,2.4c2.6,0.2,5.3,0.5,7.9,0.7c0.9,0,7.8,0.3,11.2,0.7C767.9,927.1,756,927.6,752.7,928z
			"/>
		<path class="st4" d="M787.4,896.3v33.4c0,10.9,8.8,19.6,19.5,19.6h53.1v-12.9h-53.1c-3.6,0-6.7-2.9-6.7-6.7v-13.8h46.7V903h-46.7
			v-6.7c0-3.6,3.1-6.5,6.7-6.5h53.1v-13.1h-53.1C796,876.6,787.4,885.4,787.4,896.3z"/>
	</g>
	<path d="M645.9,673.1c-23.6-87.5-47.2-174.9-70.6-262.4c-0.3,0-0.5,0-0.9,0c0,65.8,0,131.8,0,198c-5.3,0-10.3,0.2-15.3,0
		c-1.6,0-2.9-0.3-4.3-1.2c-12.7-7.2-25.3-14.5-38.1-21.9c-0.5-0.3-1-0.9-1.6-1.2c0-0.2,0.2-0.3,0.2-0.5c3.8-0.2,7.6-0.2,11.4-0.2
		s7.6,0,11.4,0s7.6,0.3,11.4-0.2c0-74.4,0-148.5,0-222.4c-0.2,0-0.3-0.2-0.5-0.2c-37.2,64.3-74.4,128.4-111.6,192.8
		c69.6,40.1,138.9,79.9,208.3,119.9C645.8,673.5,645.9,673.3,645.9,673.1z M514.1,542.9C514.1,542.9,514.1,542.9,514.1,542.9
		C514.1,542.9,514.1,542.9,514.1,542.9c-3.6-2.6-7.1-5.5-10.9-8.3c-0.3,0.5-0.6,1-1,1.5c-1.6,2.5-3.1,5-4.6,7.4
		c-0.1,0.2-0.2,0.3-0.3,0.5c-0.3-0.7-0.7-1.9-1.2-2.8c-1.6-2.1-2.9-4.1-4.3-6.5c-1.7,1.4-3.6,2.8-5.3,4s-3.3,2.6-5,3.8
		c-0.3,0-0.3-0.3-0.5-0.5c0,0,0,0,0,0l0,0c1.6-2,3.3-4,5.1-5.9c1.1-1.2,2.2-2.4,3.2-3.7c-2.9-3.1-6.5-3.6-9.8-3.6
		c-3.6-0.3-14.5-1.2-17.7-1.7c0,0,0,0,0,0c0,0,0,0,0,0c0.6,0,1.5-0.1,2.5-0.1c0,0,0.1,0,0.1,0c0.7,0,1.4-0.1,2.1-0.1
		c1.2-0.1,2.6-0.1,4-0.2c3.5-0.2,6.9-0.3,8.5-0.4c1,0,1.9-0.2,3.1-0.2c3.1,0,5.2-1.4,7.6-3.3c-2.9-3.6-6-7.1-9.1-10.7l0,0l0.2-0.2
		l0,0c3.8,2.8,7.6,5.7,11.5,8.4c2.8-3.3,4.8-6.5,5.3-10.9c0,0,0,0,0,0c0,0,0,0,0,0c0.7,4.3,2.6,7.6,5.7,10.9
		c3.2-2.3,6.4-4.7,9.5-7.1c0.6-0.5,1.2-0.9,1.8-1.3l0,0c0,0,0,0,0,0l0.2,0.2c-2.8,3.3-5.9,6.7-9,10.3c1.9,1.4,3.6,3.1,6.2,3.3
		c3.6,0.2,7.2,0.7,10.9,0.9c1.2,0,10.7,0.3,15.3,0.9c0,0,0,0,0,0c0,0,0,0,0,0c-0.5,0.1-1.2,0.1-2,0.2c-0.5,0-1,0.1-1.6,0.1
		c-0.4,0-0.9,0.1-1.4,0.1c-0.3,0-0.7,0-1.1,0.1c-1.4,0.1-2.8,0.2-4.4,0.3c-0.7,0-1.4,0.1-2.2,0.1c-0.6,0-1.1,0.1-1.7,0.1
		c-0.7,0-1.4,0.1-2.1,0.1c-3.7,0.2-7.1,0.5-8.8,0.8c-2,0.1-3.7,0.9-5.3,2c-0.6,0.4-1.2,0.8-1.9,1.3c2.8,3.3,5.7,6.9,8.4,10.2
		L514.1,542.9z"/>
</g>
</svg>
