<?xml version="1.0" encoding="utf-8"?>
<!-- Generator: Adobe Illustrator 25.3.0, SVG Export Plug-In . SVG Version: 6.00 Build 0)  -->
<svg version="1.1" id="Capa_1" xmlns="http://www.w3.org/2000/svg" xmlns:xlink="http://www.w3.org/1999/xlink" x="0px" y="0px"
	 viewBox="0 0 1000 1000" style="enable-background:new 0 0 1000 1000;" xml:space="preserve">
<style type="text/css">
	.st0{fill:url(#SVGID_1_);}
	.st1{fill:#FFFFFF;}
	.st2{display:none;}
	.st3{display:inline;enable-background:new    ;}
</style>
<linearGradient id="SVGID_1_" gradientUnits="userSpaceOnUse" x1="220.0848" y1="10.6222" x2="809.5008" y2="1041.1024">
	<stop  offset="5.193929e-02" style="stop-color:#00E4E3"/>
	<stop  offset="0.2033" style="stop-color:#6A4FEB"/>
	<stop  offset="1" style="stop-color:#000000"/>
</linearGradient>
<path class="st0" d="M824.7,972H175.3C94,972,28,906,28,824.7V175.3C28,94,94,28,175.3,28h649.4C906,28,972,94,972,175.3v649.4
	C972,906,906,972,824.7,972z"/>
<g>
	<g>
		<path d="M515.7,561.2c1.5-0.9,3.1-1.8,4.9-1.8c1.5-0.3,4.9-0.6,8.3-0.6c-3.4,0.3-6.8,0.6-8.3,0.6
			C518.8,559.3,517.2,560.2,515.7,561.2z"/>
		<path d="M506.1,540.5L506.1,540.5c-0.6,4-2.5,7.1-4.9,10.5l0,0C503.7,547.6,505.5,544.5,506.1,540.5z"/>
		<path d="M532.6,558.4c-0.6,0-0.9,0-1.5,0C531.4,558.4,532,558.4,532.6,558.4z"/>
		<path d="M510.4,565.8c0.3-0.6,0.6-0.9,0.9-1.5c3.7,2.8,6.8,5.5,10.5,8l0,0c-3.4-2.5-6.8-5.2-10.5-8
			C511.1,564.9,510.8,565.2,510.4,565.8z"/>
		<path d="M538.8,558.1c-1.2,0-2.8,0.3-4.3,0.3C536.3,558.1,537.5,558.1,538.8,558.1z"/>
		<path d="M504.6,570.7c-1.5-1.8-2.8-4-4-6.2c-1.5,1.2-3.4,2.8-4.9,3.7c-1.5,0.9-3.1,2.5-4.6,3.7c-0.3,0-0.3-0.3-0.6-0.6l0,0
			c0.3,0.3,0.3,0.6,0.6,0.6c1.5-1.2,3.1-2.5,4.6-3.7c1.5-1.2,3.4-2.5,4.9-3.7C501.8,566.7,503.4,568.9,504.6,570.7
			c0.6,0.9,0.9,1.8,1.2,2.8c0-0.3,0.3-0.3,0.3-0.6c0,0.3-0.3,0.3-0.3,0.6C505.5,572.6,505.2,571.6,504.6,570.7z"/>
		<path d="M488.9,558.7c-3.4-0.3-13.9-1.2-16.9-1.5l0,0C475,557.8,485.5,558.4,488.9,558.7c3.1,0,6.5,0.6,9.2,3.4
			c-0.9,1.2-1.8,2.5-3.1,3.4c0.9-1.2,2.2-2.2,3.1-3.4C495.4,559.3,492,558.7,488.9,558.7z"/>
		<path d="M474.4,557.2L474.4,557.2L474.4,557.2z"/>
		<path d="M476.6,556.8c1.2,0,2.5,0,3.7-0.3C479,556.8,477.5,556.8,476.6,556.8z"/>
		<path d="M544.6,557.5L544.6,557.5c-0.6,0-1.2,0-1.8,0.3C543.4,557.5,544,557.5,544.6,557.5z"/>
		<path d="M522.1,542.7c-0.6,0.3-1.2,0.9-1.8,1.2C520.9,543.6,521.5,543.3,522.1,542.7L522.1,542.7z"/>
		<path d="M541.2,557.8c-0.3,0-0.9,0-1.2,0C540.3,557.8,540.6,557.8,541.2,557.8z"/>
		<path d="M489.8,543L489.8,543c3.1,3.4,5.9,6.8,8.6,10.2l0,0C495.7,549.8,492.6,546.4,489.8,543z"/>
		<path class="st1" d="M199.4,703.4c0.3,0.3,0.3,0.3,0.6,0.3c0.6-0.6,1.5-1.2,2.2-1.8c12.3-12.3,24.9-24.9,37.6-37.3
			c22.5-22.5,45-45,67.4-67.1c30.5-30.2,60.7-60.4,91.2-90.8c21.6-21.6,43.1-42.8,64.4-64.1c8-8,16.3-16,24.3-24
			c22.2-21.9,44-43.7,65.9-65.6c1.2-1.2,1.5-2.5,0.9-4c-0.3-0.6-0.3-0.9-0.3-1.5L512,194.1c-1.8-18.2-9.5-38.5-28.9-58.5
			c11.7,28.3,11.7,47.7,8.9,63.4C394,367.4,296.7,535.3,199.4,703.4z"/>
		<path class="st1" d="M390,634.5c2.2,1.5,187.5,51.1,190.6,51.1c-54.8-31.7-109.3-62.8-164.1-94.2c31.7-54.5,62.8-108.7,94.2-162.6
			c0,0,0-0.3-0.3-0.3l-0.3-0.3c-7.4,6.5-181.4,180.2-182.9,182.9c1.5,0,2.8,0,3.7,0c31.1,0,62.5,0,93.6,0c2.2,0,3.7,0.6,5.5,1.5
			c11.7,6.8,23.1,13.2,35.1,20c0.9,0.3,1.5,0.9,2.2,1.5c0,0.3-0.3,0.3-0.3,0.6C441.5,634.5,415.9,634.5,390,634.5z"/>
		<path class="st1" d="M785.8,765.6C785.8,765.6,785.8,765.3,785.8,765.6c-0.6-0.6-1.2-0.6-2.2-0.9c-9.9-2.8-20-5.5-30.2-8
			c-70.8-19.1-141.7-37.9-212.2-56.7c-78.8-20.9-158-42.2-236.8-63.1c-2.2-0.6-3.7-0.3-5.5,1.5c-13.2,13.2-26.8,26.8-40.3,40.3
			c-8.3,8.3-16.6,16.6-25.3,24.9c-8.9,8.9-18.2,18.2-27.1,27.1c-18.2,15.7-25.6,36-75.8,42.5c45.6,2.5,73-0.9,89.6-7.1
			C409.1,765.6,597.3,765.6,785.8,765.6z"/>
		<path class="st1" d="M565.3,301.9c21.2,78.8,42.5,157.7,63.4,236.5c15.1,56.7,30.5,113.3,45.6,170c0.6,2.2,1.5,3.1,3.7,3.7
			c46.5,12.3,93,24.9,139.5,37.3c15.4,8,32.3,20.3,48,51.1c-1.5-16.9-6.2-30.5-12.3-41.6l0,0l0,0c-0.6-0.6-0.9-1.5-1.2-2.2
			L546.5,228.9c-0.3,1.2-0.3,2.2,0.3,3.1C552.6,255,558.8,278.4,565.3,301.9z"/>
		<path class="st1" d="M646.6,695.7c-22.5-82.8-44.7-166-66.8-248.8c-0.3,0-0.6,0-0.9,0c0,62.5,0,125,0,187.9c-4.9,0-9.9,0.3-14.5,0
			c-1.5,0-2.8-0.3-4-1.2c-12-6.8-24-13.9-36-20.6c-0.6-0.3-0.9-0.9-1.5-1.2c0-0.3,0.3-0.3,0.3-0.6c3.7-0.3,7.1-0.3,10.8-0.3
			c3.7,0,7.1,0,10.8,0c3.7,0,7.1,0.3,10.8-0.3c0-70.5,0-140.7,0-211c-0.3,0-0.3-0.3-0.6-0.3c-35.4,61-70.5,121.6-105.9,182.9
			C514.8,620.3,580.7,657.9,646.6,695.7C646.6,696,646.6,695.7,646.6,695.7z M521.5,572.2L521.5,572.2L521.5,572.2
			c-3.4-2.5-6.8-5.2-10.5-8c-0.3,0.6-0.6,0.9-0.9,1.5c-1.5,2.5-3.1,4.6-4.3,7.1c0,0.3-0.3,0.3-0.3,0.6c-0.3-0.6-0.6-1.8-1.2-2.8
			c-1.5-1.8-2.8-4-4-6.2c-1.5,1.2-3.4,2.8-4.9,3.7c-1.5,1.2-3.1,2.5-4.6,3.7c-0.3,0-0.3-0.3-0.6-0.6l0,0l0,0
			c1.5-1.8,3.1-3.7,4.9-5.5c0.9-1.2,2.2-2.2,3.1-3.4c-2.8-3.1-6.2-3.4-9.2-3.4c-3.4-0.3-13.9-1.2-16.9-1.5l0,0l0,0
			c0.6,0,1.5,0,2.5,0l0,0c0.6,0,1.2,0,1.8,0c1.2,0,2.5,0,3.7-0.3c3.4-0.3,6.5-0.3,8-0.3c0.9,0,1.8-0.3,3.1-0.3
			c3.1,0,4.9-1.2,7.1-3.1c-2.8-3.4-5.5-6.8-8.6-10.2l0,0l0.3-0.3l0,0c3.7,2.8,7.1,5.5,10.8,8c2.8-3.1,4.6-6.2,4.9-10.5l0,0l0,0
			c0.6,4,2.5,7.1,5.5,10.5c3.1-2.2,6.2-4.3,8.9-6.8c0.6-0.6,1.2-0.9,1.8-1.2l0,0l0,0l0.3,0.3c-2.8,3.1-5.5,6.5-8.6,9.9
			c1.8,1.2,3.4,3.1,5.9,3.1c3.4,0.3,6.8,0.6,10.5,0.9c1.2,0,10.2,0.3,14.5,0.9l0,0l0,0c-0.6,0-1.2,0-1.8,0.3c-0.6,0-0.9,0-1.5,0
			c-0.3,0-0.9,0-1.2,0s-0.6,0-0.9,0c-1.2,0-2.8,0.3-4.3,0.3c-0.6,0-1.2,0-2.2,0c-0.6,0-0.9,0-1.5,0s-1.2,0-1.8,0
			c-3.4,0.3-6.8,0.6-8.3,0.6c-1.8,0-3.4,0.9-4.9,1.8c-0.6,0.3-1.2,0.6-1.8,1.2C516.3,565.8,519.1,569.2,521.5,572.2L521.5,572.2z"/>
	</g>
	<g class="st2">
		<g class="st3">
			<path class="st1" d="M56.6,877.7c31.3,0,56.8,25.3,56.8,56.6c0,13.9-5,26.8-13.5,36.7c-1,1.1-2.1,2.3-3.2,3.4
				c-10.2,10.4-24.3,16.7-39.9,16.7H0V877.5L56.6,877.7z M20.1,971h36.5c20.1,0,36.5-16.4,36.5-36.5c0-20.1-16.4-36.5-36.5-36.5
				H20.1V971z"/>
			<path class="st1" d="M221.4,971l10.4,20.3h-22.7L198.7,971l-10.9-21.2l-0.5-1c-3.6-5.8-9.9-9.7-17.2-9.7h-20.3v52.2h-20.3V877.7
				h71.7c8.4,0,16.1,3.4,21.6,8.9c5.5,5.7,8.9,13.3,8.9,21.7c0,12.3-7.3,23-17.8,27.9c-2.8,1.3-5.7,2.1-8.8,2.4L221.4,971z
				 M201.3,918.7c1.5,0,2.9-0.3,4.2-1c3.7-1.6,6.2-5.4,6.2-9.4c0-3.7-1.9-6.3-3.1-7.5c-1.3-1.3-3.7-2.9-7.3-2.9h-51.4v20.9
				L201.3,918.7z"/>
			<path class="st1" d="M268.5,908.2v10.5h73V939h-73v21.4c0,5.7,4.7,10.4,10.4,10.4h82.9v20.3h-82.9c-16.9,0-30.5-13.8-30.5-30.7
				v-52.2c0-16.9,13.6-30.7,30.5-30.7h82.9v20.3h-82.9C273.2,897.8,268.5,902.5,268.5,908.2z"/>
			<path class="st1" d="M487.4,991.1h-22.7l-10.4-20.3l-24.8-48.7l-24.8,48.7l-10.4,20.3h-22.7l10.4-20.3l47.5-93.3l47.5,93.3
				L487.4,991.1z"/>
			<path class="st1" d="M610.7,877.5v113.5h-20.3v-72.3l-20,15.2l-16.5,12.8L537.4,934l-20-15.2v72.3h-20.3V877.5l20.3,15.6
				l36.5,28.1l36.5-28.1L610.7,877.5z"/>
		</g>
		<g class="st3">
			<path class="st1" d="M740.5,877.5v113.5h-20.3V939h-73v52.1h-20.3V877.5h20.3v41.2h73v-41.2H740.5z"/>
			<path class="st1" d="M870.2,877.5v56.8c0,31.3-25.5,56.8-56.8,56.8s-56.8-25.5-56.8-56.8v-56.8H777v56.8
				c0,20.1,16.4,36.5,36.5,36.5c20.1,0,36.5-16.4,36.5-36.5v-56.8H870.2z"/>
			<path class="st1" d="M1000,954.9c0,20-16.2,36.2-36.2,36.2h-77.4V877.5H958c16.9,0,30.7,13.8,30.7,30.7c0,6.2-1.8,11.8-4.9,16.5
				C993.5,931.2,1000,942.3,1000,954.9z M906.7,918.6h51.4c5.7,0,10.4-4.7,10.4-10.4s-4.7-10.4-10.4-10.4h-51.4V918.6z M963.8,970.7
				c8.8,0,15.9-7.1,15.9-15.9c0-8.8-7.1-15.9-15.9-15.9h-57.1v32h57.1V970.7z"/>
		</g>
	</g>
</g>
</svg>
